# xmcd CD database file
#
# Track frame offsets:
#	150
#	9890
#	21730
#	34512
#	44977
#	55070
#	66027
#	76522
#	86587
#	97242
#	107375
#	119410
#	131270
#	144662
#	156430
#	169490
#	182995
#	194440
#	205812
#	217105
#	229557
#	241262
#	252877
#	268122
#	278712
#	290857
#	305520
#	316102
#
# Disc length: 4387 seconds
#
# Revision: 1
# Processed by: cddbd v1.5.1PL2 Copyright (c) Steve Scherf et al.
# Submitted via: CDex 1.51
#
DISCID=9c11211c
DTITLE=Burl Ives - The Nashville Years Vol 5
DYEAR=1900
DGENRE=Country
TTITLE0=Okeechobee Ocean
TTITLE1=My Melancholy Baby
TTITLE2=Jealous
TTITLE3=My Gal Sal
TTITLE4=By The Light Of The Silvery Moon
TTITLE5=For Me And My Gal
TTITLE6=Red Sails In The Sunset
TTITLE7=Make Believe
TTITLE8=Oh, How I Miss You Tonight
TTITLE9=You Know You Belong To Somebody Else
TTITLE10=Down In The Okefenokee
TTITLE11=(I Hear You) Call My Name
TTITLE12=Mister Make-up Man
TTITLE13=River Boy
TTITLE14=Drifting And Dreaming
TTITLE15=Beyond The Reef
TTITLE16=My Isle Of Golden Dreams
TTITLE17=Now Is The Hour
TTITLE18=Sweet Leilani
TTITLE19=Moon Of Manakoora
TTITLE20=Song Of The Islands
TTITLE21=Keep Your Eyes On The Hands
TTITLE22=Hawaiian Bells
TTITLE23=Little Brown Girl
TTITLE24=On The Beach Of Waikiki
TTITLE25=Aloha Oe
TTITLE26=Thirty Thousand Feet Over Denver
TTITLE27=Betsy, The Cow
EXTD=
EXTT0=
EXTT1=
EXTT2=
EXTT3=
EXTT4=
EXTT5=
EXTT6=
EXTT7=
EXTT8=
EXTT9=
EXTT10=
EXTT11=
EXTT12=
EXTT13=
EXTT14=
EXTT15=
EXTT16=
EXTT17=
EXTT18=
EXTT19=
EXTT20=
EXTT21=
EXTT22=
EXTT23=
EXTT24=
EXTT25=
EXTT26=
EXTT27=
PLAYORDER=
